<svg width="43" height="43" viewBox="0 0 43 43" fill="none" xmlns="http://www.w3.org/2000/svg">
<path d="M15.0449 25.8486C15.625 25.8486 16.1318 25.6729 16.5654 25.3213C16.999 24.9697 17.2393 24.5303 17.2861 24.0029H18.8242C18.7949 24.5479 18.6074 25.0664 18.2617 25.5586C17.916 26.0508 17.4531 26.4434 16.873 26.7363C16.2988 27.0293 15.6895 27.1758 15.0449 27.1758C13.75 27.1758 12.7188 26.7451 11.9512 25.8838C11.1895 25.0166 10.8086 23.833 10.8086 22.333V22.0605C10.8086 21.1348 10.9785 20.3115 11.3184 19.5908C11.6582 18.8701 12.1445 18.3105 12.7773 17.9121C13.416 17.5137 14.1689 17.3145 15.0361 17.3145C16.1025 17.3145 16.9873 17.6338 17.6904 18.2725C18.3994 18.9111 18.7773 19.7402 18.8242 20.7598H17.2861C17.2393 20.1445 17.0049 19.6406 16.583 19.248C16.167 18.8496 15.6514 18.6504 15.0361 18.6504C14.21 18.6504 13.5684 18.9492 13.1113 19.5469C12.6602 20.1387 12.4346 20.9971 12.4346 22.1221V22.4297C12.4346 23.5254 12.6602 24.3691 13.1113 24.9609C13.5625 25.5527 14.207 25.8486 15.0449 25.8486ZM30.3203 22.9395C30.1621 24.293 29.6611 25.3389 28.8174 26.0771C27.9795 26.8096 26.8633 27.1758 25.4688 27.1758C23.957 27.1758 22.7441 26.6338 21.8301 25.5498C20.9219 24.4658 20.4678 23.0156 20.4678 21.1992V19.9688C20.4678 18.7793 20.6787 17.7334 21.1006 16.8311C21.5283 15.9287 22.1318 15.2373 22.9111 14.7568C23.6904 14.2705 24.5928 14.0273 25.6182 14.0273C26.9775 14.0273 28.0674 14.4082 28.8877 15.1699C29.708 15.9258 30.1855 16.9746 30.3203 18.3164H28.624C28.4775 17.2969 28.1582 16.5586 27.666 16.1016C27.1797 15.6445 26.4971 15.416 25.6182 15.416C24.54 15.416 23.6934 15.8145 23.0781 16.6113C22.4688 17.4082 22.1641 18.542 22.1641 20.0127V21.252C22.1641 22.6406 22.4541 23.7451 23.0342 24.5654C23.6143 25.3857 24.4258 25.7959 25.4688 25.7959C26.4062 25.7959 27.124 25.585 27.6221 25.1631C28.126 24.7354 28.46 23.9941 28.624 22.9395H30.3203Z" fill="#FF9900"/>
<path d="M17.2861 24.0029V23.0029H16.3711L16.2901 23.9144L17.2861 24.0029ZM18.8242 24.0029L19.8228 24.0566L19.8794 23.0029H18.8242V24.0029ZM16.873 26.7363L16.4222 25.8437L16.4186 25.8456L16.873 26.7363ZM11.9512 25.8838L11.1998 26.5437L11.2046 26.5491L11.9512 25.8838ZM12.7773 17.9121L12.248 17.0637L12.2445 17.0659L12.7773 17.9121ZM17.6904 18.2725L17.0181 19.0127L17.0211 19.0154L17.6904 18.2725ZM18.8242 20.7598V21.7598H19.8713L19.8232 20.7138L18.8242 20.7598ZM17.2861 20.7598L16.289 20.8357L16.3594 21.7598H17.2861V20.7598ZM16.583 19.248L15.8913 19.9702L15.8965 19.9752L15.9018 19.9801L16.583 19.248ZM13.1113 19.5469L12.317 18.9394L12.3161 18.9406L13.1113 19.5469ZM15.0449 26.8486C15.8446 26.8486 16.5761 26.6 17.1952 26.098L15.9356 24.5445C15.6876 24.7457 15.4054 24.8486 15.0449 24.8486V26.8486ZM17.1952 26.098C17.8262 25.5864 18.21 24.9043 18.2822 24.0915L16.2901 23.9144C16.2686 24.1563 16.1718 24.353 15.9356 24.5445L17.1952 26.098ZM17.2861 25.0029H18.8242V23.0029H17.2861V25.0029ZM17.8257 23.9492C17.8074 24.2882 17.6928 24.6288 17.4434 24.9838L19.08 26.1334C19.5221 25.504 19.7824 24.8075 19.8228 24.0566L17.8257 23.9492ZM17.4434 24.9838C17.1997 25.3308 16.8677 25.6187 16.4222 25.8437L17.3239 27.6289C18.0386 27.268 18.6323 26.7708 19.08 26.1334L17.4434 24.9838ZM16.4186 25.8456C15.9851 26.0667 15.5314 26.1758 15.0449 26.1758V28.1758C15.8475 28.1758 16.6126 27.9918 17.3275 27.6271L16.4186 25.8456ZM15.0449 26.1758C13.9963 26.1758 13.2512 25.8395 12.6977 25.2185L11.2046 26.5491C12.1863 27.6507 13.5037 28.1758 15.0449 28.1758V26.1758ZM12.7025 25.2238C12.1442 24.5882 11.8086 23.6645 11.8086 22.333H9.80859C9.80859 24.0015 10.2347 25.445 11.1999 26.5437L12.7025 25.2238ZM11.8086 22.333V22.0605H9.80859V22.333H11.8086ZM11.8086 22.0605C11.8086 21.2585 11.9553 20.5847 12.2228 20.0173L10.4139 19.1643C10.0017 20.0383 9.80859 21.0111 9.80859 22.0605H11.8086ZM12.2228 20.0173C12.4869 19.4573 12.8494 19.0484 13.3102 18.7583L12.2445 17.0659C11.4396 17.5727 10.8295 18.283 10.4139 19.1643L12.2228 20.0173ZM13.3066 18.7605C13.7636 18.4755 14.327 18.3145 15.0361 18.3145V16.3145C14.0108 16.3145 13.0684 16.5519 12.248 17.0637L13.3066 18.7605ZM15.0361 18.3145C15.8867 18.3145 16.5219 18.562 17.0181 19.0127L18.3628 17.5322C17.4527 16.7056 16.3183 16.3145 15.0361 16.3145V18.3145ZM17.0211 19.0154C17.5166 19.4618 17.7897 20.0326 17.8253 20.8057L19.8232 20.7138C19.765 19.4478 19.2822 18.3604 18.3597 17.5295L17.0211 19.0154ZM18.8242 19.7598H17.2861V21.7598H18.8242V19.7598ZM18.2832 20.6838C18.2187 19.8373 17.8839 19.0926 17.2642 18.516L15.9018 19.9801C16.1259 20.1887 16.2598 20.4518 16.289 20.8357L18.2832 20.6838ZM17.2747 18.5258C16.659 17.9362 15.8898 17.6504 15.0361 17.6504V19.6504C15.4129 19.6504 15.6749 19.763 15.8913 19.9702L17.2747 18.5258ZM15.0361 17.6504C13.9336 17.6504 12.9836 18.0677 12.317 18.9394L13.9057 20.1543C14.1531 19.8307 14.4863 19.6504 15.0361 19.6504V17.6504ZM12.3161 18.9406C11.6795 19.7756 11.4346 20.8844 11.4346 22.1221H13.4346C13.4346 21.1097 13.6408 20.5017 13.9066 20.1532L12.3161 18.9406ZM11.4346 22.1221V22.4297H13.4346V22.1221H11.4346ZM11.4346 22.4297C11.4346 23.6452 11.6824 24.736 12.3161 25.5672L13.9066 24.3547C13.6379 24.0023 13.4346 23.4056 13.4346 22.4297H11.4346ZM12.3161 25.5672C12.9821 26.4408 13.94 26.8486 15.0449 26.8486V24.8486C14.4741 24.8486 14.1429 24.6647 13.9066 24.3547L12.3161 25.5672ZM30.3203 22.9395L31.3136 23.0555L31.444 21.9395H30.3203V22.9395ZM28.8174 26.0771L29.4755 26.8301L29.4759 26.8297L28.8174 26.0771ZM21.8301 25.5498L21.0636 26.192L21.0656 26.1944L21.8301 25.5498ZM21.1006 16.8311L20.197 16.4027L20.1947 16.4075L21.1006 16.8311ZM22.9111 14.7568L23.436 15.6081L23.4406 15.6052L22.9111 14.7568ZM28.8877 15.1699L28.2072 15.9027L28.2101 15.9053L28.8877 15.1699ZM30.3203 18.3164V19.3164H31.4258L31.3153 18.2165L30.3203 18.3164ZM28.624 18.3164L27.6342 18.4586L27.7574 19.3164H28.624V18.3164ZM27.666 16.1016L26.9812 16.8303L26.9856 16.8344L27.666 16.1016ZM23.0781 16.6113L22.2866 16.0002L22.2838 16.0039L23.0781 16.6113ZM27.6221 25.1631L28.2684 25.9261L28.2692 25.9255L27.6221 25.1631ZM28.624 22.9395V21.9395H27.7676L27.6359 22.7857L28.624 22.9395ZM29.3271 22.8234C29.1911 23.9863 28.7777 24.7831 28.1589 25.3246L29.4759 26.8297C30.5446 25.8946 31.1331 24.5997 31.3136 23.0555L29.3271 22.8234ZM28.1593 25.3242C27.5462 25.8601 26.6846 26.1758 25.4688 26.1758V28.1758C27.042 28.1758 28.4127 27.7591 29.4755 26.8301L28.1593 25.3242ZM25.4688 26.1758C24.2295 26.1758 23.3047 25.7474 22.5946 24.9052L21.0656 26.1944C22.1835 27.5202 23.6845 28.1758 25.4688 28.1758V26.1758ZM22.5966 24.9076C21.8779 24.0497 21.4678 22.8489 21.4678 21.1992H19.4678C19.4678 23.1823 19.9659 24.8819 21.0636 26.192L22.5966 24.9076ZM21.4678 21.1992V19.9688H19.4678V21.1992H21.4678ZM21.4678 19.9688C21.4678 18.8976 21.6575 18.0011 22.0065 17.2546L20.1947 16.4075C19.7 17.4657 19.4678 18.661 19.4678 19.9688H21.4678ZM22.0042 17.2594C22.357 16.5152 22.836 15.9779 23.4359 15.6081L22.3863 13.9056C21.4277 14.4967 20.6996 15.3423 20.197 16.4027L22.0042 17.2594ZM23.4406 15.6052C24.043 15.2292 24.7575 15.0273 25.6182 15.0273V13.0273C24.428 13.0273 23.3378 13.3118 22.3817 13.9085L23.4406 15.6052ZM25.6182 15.0273C26.7822 15.0273 27.6098 15.348 28.2072 15.9027L29.5681 14.4371C28.5249 13.4684 27.1729 13.0273 25.6182 13.0273V15.0273ZM28.2101 15.9053C28.8145 16.4623 29.2096 17.2647 29.3253 18.4163L31.3153 18.2165C31.1614 16.6845 30.6015 15.3893 29.5653 14.4345L28.2101 15.9053ZM30.3203 17.3164H28.624V19.3164H30.3203V17.3164ZM29.6139 18.1742C29.4513 17.0431 29.0752 16.0454 28.3465 15.3688L26.9856 16.8344C27.2412 17.0718 27.5037 17.5507 27.6342 18.4586L29.6139 18.1742ZM28.3508 15.3728C27.6264 14.692 26.6686 14.416 25.6182 14.416V16.416C26.3255 16.416 26.733 16.597 26.9812 16.8303L28.3508 15.3728ZM25.6182 14.416C24.2556 14.416 23.1062 14.9386 22.2866 16.0002L23.8697 17.2224C24.2805 16.6903 24.8245 16.416 25.6182 16.416V14.416ZM22.2838 16.0039C21.4916 17.0398 21.1641 18.4208 21.1641 20.0127H23.1641C23.1641 18.6632 23.4459 17.7766 23.8725 17.2188L22.2838 16.0039ZM21.1641 20.0127V21.252H23.1641V20.0127H21.1641ZM21.1641 21.252C21.1641 22.7705 21.4804 24.1001 22.2177 25.1428L23.8507 23.9881C23.4278 23.3901 23.1641 22.5108 23.1641 21.252H21.1641ZM22.2177 25.1428C22.9935 26.2399 24.1158 26.7959 25.4688 26.7959V24.7959C24.7357 24.7959 24.235 24.5316 23.8507 23.9881L22.2177 25.1428ZM25.4688 26.7959C26.5416 26.7959 27.5251 26.5558 28.2684 25.9261L26.9757 24.4C26.7229 24.6142 26.2709 24.7959 25.4688 24.7959V26.7959ZM28.2692 25.9255C29.0396 25.2715 29.4325 24.2481 29.6121 23.0932L27.6359 22.7857C27.4874 23.7401 27.2123 24.1992 26.9749 24.4007L28.2692 25.9255ZM28.624 23.9395H30.3203V21.9395H28.624V23.9395Z" fill="#FF9900"/>
<path d="M23.4478 1.90969C22.8099 -0.636563 19.1953 -0.636563 18.5548 1.90969L18.3684 2.66044C18.2594 3.09673 18.0356 3.49589 17.7202 3.81651C17.4049 4.13712 17.0094 4.3675 16.575 4.48374C16.1406 4.59998 15.6829 4.59785 15.2496 4.47757C14.8163 4.35728 14.423 4.12323 14.1107 3.79969L13.5726 3.24581C11.7482 1.35844 8.61656 3.16706 9.33843 5.68969L9.54844 6.43519C9.67183 6.86712 9.67753 7.32419 9.56493 7.75906C9.45234 8.19393 9.22554 8.5908 8.90804 8.90858C8.59053 9.22636 8.19385 9.45348 7.75907 9.56644C7.32429 9.67941 6.86722 9.6741 6.43519 9.55106L5.68969 9.33844C3.16969 8.61656 1.35844 11.7482 3.24581 13.5726L3.79969 14.1107C4.12322 14.423 4.35728 14.8163 4.47756 15.2496C4.59785 15.683 4.59998 16.1406 4.48374 16.575C4.3675 17.0094 4.13712 17.4049 3.81651 17.7202C3.49589 18.0356 3.09673 18.2594 2.66044 18.3684L1.90969 18.5548C-0.636562 19.1927 -0.636562 22.8073 1.90969 23.4478L2.66044 23.6342C3.09673 23.7432 3.49589 23.9671 3.81651 24.2824C4.13712 24.5978 4.3675 24.9932 4.48374 25.4276C4.59998 25.862 4.59785 26.3197 4.47756 26.753C4.35728 27.1863 4.12322 27.5796 3.79969 27.8919L3.24581 28.4301C1.35844 30.2544 3.16706 33.3861 5.68969 32.6642L6.43519 32.4542C6.86739 32.3306 7.32479 32.3248 7.75998 32.4375C8.19516 32.5502 8.59227 32.7772 8.91014 33.0951C9.22801 33.413 9.45507 33.8101 9.56776 34.2453C9.68046 34.6805 9.67469 35.1379 9.55106 35.5701L9.33843 36.3129C8.61656 38.8329 11.7482 40.6442 13.5726 38.7568L14.1107 38.2029C14.423 37.8794 14.8163 37.6453 15.2496 37.5251C15.6829 37.4048 16.1406 37.4026 16.575 37.5189C17.0094 37.6351 17.4049 37.8655 17.7202 38.1861C18.0356 38.5067 18.2594 38.9059 18.3684 39.3422L18.5548 40.0929C19.1927 42.6392 22.8073 42.6392 23.4478 40.0929L23.6342 39.3422C23.7432 38.9059 23.967 38.5067 24.2824 38.1861C24.5978 37.8655 24.9932 37.6351 25.4276 37.5189C25.862 37.4026 26.3197 37.4048 26.753 37.5251C27.1863 37.6453 27.5796 37.8794 27.8919 38.2029L28.4301 38.7568C30.2544 40.6442 33.3861 38.8356 32.6642 36.3129L32.4542 35.5674C32.3305 35.1352 32.3248 34.6778 32.4375 34.2426C32.5502 33.8075 32.7772 33.4104 33.0951 33.0925C33.413 32.7746 33.8101 32.5476 34.2453 32.4349C34.6804 32.3222 35.1379 32.3279 35.5701 32.4516L36.3129 32.6642C38.8329 33.3861 40.6442 30.2544 38.7568 28.4301L38.2029 27.8919C37.8794 27.5796 37.6453 27.1863 37.525 26.753C37.4048 26.3197 37.4026 25.862 37.5189 25.4276C37.6351 24.9932 37.8655 24.5978 38.1861 24.2824C38.5067 23.9671 38.9059 23.7432 39.3422 23.6342L40.0929 23.4478C42.6392 22.8099 42.6392 19.1953 40.0929 18.5548L39.3422 18.3684C38.9059 18.2594 38.5067 18.0356 38.1861 17.7202C37.8655 17.4049 37.6351 17.0094 37.5189 16.575C37.4026 16.1406 37.4048 15.683 37.525 15.2496C37.6453 14.8163 37.8794 14.423 38.2029 14.1107L38.7568 13.5726C40.6442 11.7482 38.8356 8.61656 36.3129 9.33844L35.5674 9.54844C35.1355 9.67184 34.6784 9.67753 34.2436 9.56494C33.8087 9.45234 33.4118 9.22555 33.094 8.90804C32.7763 8.59053 32.5491 8.19385 32.4362 7.75907C32.3232 7.32429 32.3285 6.86722 32.4516 6.43519L32.6642 5.68969C33.3861 3.16969 30.2544 1.35844 28.4301 3.24581L27.8919 3.79969C27.5796 4.12323 27.1863 4.35728 26.753 4.47757C26.3197 4.59785 25.862 4.59998 25.4276 4.48374C24.9932 4.3675 24.5978 4.13712 24.2824 3.81651C23.967 3.49589 23.7432 3.09673 23.6342 2.66044L23.4478 1.90969ZM21.0013 34.1184C19.263 34.143 17.5371 33.8219 15.9239 33.1736C14.3107 32.5254 12.8425 31.563 11.6045 30.3424C10.3665 29.1218 9.38348 27.6674 8.7125 26.0635C8.04152 24.4597 7.69599 22.7385 7.69599 21C7.69599 19.2615 8.04152 17.5403 8.7125 15.9365C9.38348 14.3326 10.3665 12.8782 11.6045 11.6576C12.8425 10.437 14.3107 9.47458 15.9239 8.82635C17.5371 8.17812 19.263 7.85697 21.0013 7.88156C24.4809 7.88156 27.8179 9.26382 30.2784 11.7242C32.7388 14.1847 34.1211 17.5217 34.1211 21.0013C34.1211 24.4809 32.7388 27.8179 30.2784 30.2784C27.8179 32.7388 24.4809 34.1211 21.0013 34.1211V34.1184Z" fill="#686868"/>
</svg>


